<svg width="40" height="40" viewBox="0 0 40 40" fill="none" xmlns="http://www.w3.org/2000/svg">
<path d="M19.9983 12.2949C17.9544 12.2949 15.9942 13.1069 14.5489 14.5522C13.1036 15.9974 12.2917 17.9577 12.2917 20.0016C12.2917 22.0455 13.1036 24.0057 14.5489 25.451C15.9942 26.8963 17.9544 27.7083 19.9983 27.7083C22.0423 27.7083 24.0025 26.8963 25.4478 25.451C26.893 24.0057 27.705 22.0455 27.705 20.0016C27.705 17.9577 26.893 15.9974 25.4478 14.5522C24.0025 13.1069 22.0423 12.2949 19.9983 12.2949ZM19.9983 25.0066C18.6705 25.0066 17.397 24.4791 16.4581 23.5402C15.5191 22.6012 14.9917 21.3278 14.9917 19.9999C14.9917 18.6721 15.5191 17.3986 16.4581 16.4597C17.397 15.5207 18.6705 14.9933 19.9983 14.9933C21.3262 14.9933 22.5996 15.5207 23.5386 16.4597C24.4775 17.3986 25.005 18.6721 25.005 19.9999C25.005 21.3278 24.4775 22.6012 23.5386 23.5402C22.5996 24.4791 21.3262 25.0066 19.9983 25.0066Z" fill="#FFA700"/>
<path d="M28.01 13.8082C29.0023 13.8082 29.8067 13.0038 29.8067 12.0115C29.8067 11.0192 29.0023 10.2148 28.01 10.2148C27.0177 10.2148 26.2133 11.0192 26.2133 12.0115C26.2133 13.0038 27.0177 13.8082 28.01 13.8082Z" fill="#FFA700"/>
<path d="M34.2217 10.185C33.8359 9.1886 33.2462 8.28377 32.4906 7.5284C31.7349 6.77303 30.8299 6.18375 29.8334 5.7983C28.6672 5.36056 27.4353 5.12387 26.19 5.0983C24.585 5.0283 24.0767 5.0083 20.0067 5.0083C15.9367 5.0083 15.415 5.0083 13.8234 5.0983C12.579 5.12256 11.348 5.3593 10.1834 5.7983C9.18658 6.1833 8.2813 6.77242 7.52558 7.52785C6.76986 8.28328 6.1804 9.18834 5.79502 10.185C5.3572 11.351 5.12105 12.583 5.09669 13.8283C5.02502 15.4316 5.00336 15.94 5.00336 20.0116C5.00336 24.0816 5.00336 24.6 5.09669 26.195C5.12169 27.4416 5.35669 28.6716 5.79502 29.84C6.18149 30.8362 6.77152 31.7409 7.52742 32.4963C8.28332 33.2516 9.18846 33.8409 10.185 34.2266C11.3474 34.682 12.579 34.9356 13.8267 34.9766C15.4317 35.0466 15.94 35.0683 20.01 35.0683C24.08 35.0683 24.6017 35.0683 26.1934 34.9766C27.4385 34.9513 28.6704 34.7152 29.8367 34.2783C30.8329 33.892 31.7377 33.3022 32.4933 32.5466C33.2489 31.791 33.8387 30.8862 34.225 29.89C34.6634 28.7233 34.8984 27.4933 34.9234 26.2466C34.995 24.6433 35.0167 24.135 35.0167 20.0633C35.0167 15.9916 35.0167 15.475 34.9234 13.88C34.904 12.6171 34.6666 11.367 34.2217 10.185ZM32.1917 26.0716C32.1809 27.0321 32.0056 27.9837 31.6734 28.885C31.4231 29.5331 31.0399 30.1216 30.5485 30.6128C30.0571 31.1039 29.4683 31.4867 28.82 31.7366C27.9287 32.0674 26.9873 32.2427 26.0367 32.255C24.4534 32.3283 24.0067 32.3466 19.9467 32.3466C15.8834 32.3466 15.4684 32.3466 13.855 32.255C12.9049 32.2433 11.9639 32.068 11.0734 31.7366C10.4228 31.4883 9.83169 31.1061 9.33817 30.6149C8.84465 30.1237 8.45975 29.5343 8.20836 28.885C7.88077 27.9934 7.70554 27.053 7.69002 26.1033C7.61836 24.52 7.60169 24.0733 7.60169 20.0133C7.60169 15.9516 7.60169 15.5366 7.69002 13.9216C7.7008 12.9617 7.87612 12.0107 8.20836 11.11C8.71669 9.79497 9.75836 8.75997 11.0734 8.25663C11.9643 7.92687 12.9051 7.75157 13.855 7.7383C15.44 7.66663 15.885 7.64663 19.9467 7.64663C24.0084 7.64663 24.425 7.64663 26.0367 7.7383C26.9874 7.74974 27.929 7.92509 28.82 8.25663C29.4682 8.50709 30.0569 8.8903 30.5483 9.38168C31.0397 9.87306 31.4229 10.4618 31.6734 11.11C32.0009 12.0016 32.1762 12.9419 32.1917 13.8916C32.2634 15.4766 32.2817 15.9216 32.2817 19.9833C32.2817 24.0433 32.2817 24.48 32.21 26.0733H32.1917V26.0716Z" fill="#FFA700"/>
</svg>
