<svg width="40" height="40" viewBox="0 0 40 40" fill="none" xmlns="http://www.w3.org/2000/svg">
<path d="M35.9883 12.0052C35.7985 11.3008 35.4275 10.6585 34.9123 10.1421C34.3971 9.62573 33.7556 9.25328 33.0517 9.06184C30.4417 8.34518 20 8.33351 20 8.33351C20 8.33351 9.56 8.32184 6.94833 9.00684C6.24488 9.20709 5.6047 9.5848 5.08928 10.1037C4.57385 10.6227 4.20048 11.2654 4.005 11.9702C3.31667 14.5802 3.31 19.9935 3.31 19.9935C3.31 19.9935 3.30333 25.4335 3.98667 28.0168C4.37 29.4452 5.495 30.5735 6.925 30.9585C9.56167 31.6752 19.975 31.6868 19.975 31.6868C19.975 31.6868 30.4167 31.6985 33.0267 31.0152C33.7308 30.8241 34.3729 30.4525 34.8894 29.9371C35.4059 29.4218 35.779 28.7806 35.9717 28.0768C36.6617 25.4685 36.6667 20.0568 36.6667 20.0568C36.6667 20.0568 36.7 14.6152 35.9883 12.0052ZM16.66 25.0085L16.6683 15.0085L25.3467 20.0168L16.66 25.0085Z" fill="#FFA700"/>
</svg>
