<svg width="40" height="37" viewBox="0 0 40 37" fill="#ffa700" xmlns="http://www.w3.org/2000/svg">
<path d="M25.2012 2.37147C24.1269 1.56209 22.065 1.15625 20 1.15625C17.9362 1.15625 15.8744 1.56152 14.8 2.37089V14.7485H25.2019V2.37147H25.2012Z" fill="#ffa700"/>
<path d="M36.49 15.941L36.8225 16.1052C36.4938 10.162 33.5769 5.38963 26.2106 3.74023L26.2113 13.7551C30.4881 14.1459 34.1106 14.9241 36.49 15.941Z" fill="#ffa700"/>
<path d="M13.7894 13.7551L13.7906 3.74023C6.42312 5.38962 3.50624 10.162 3.17749 16.1057L3.50999 15.9416C5.88999 14.9241 9.51249 14.1459 13.7894 13.7551Z" fill="#ffa700"/>
<path d="M15.625 22.2913C15.625 21.9722 15.5544 21.671 15.4406 21.3883C16.0844 21.8202 16.6025 22.4012 16.875 23.1574C16.875 18.5335 8.125 18.5335 8.125 22.5804C8.5325 21.6369 9.47625 21.0079 10.6019 20.7003C10.214 21.1532 10.002 21.7136 10 22.2913C10 22.9813 10.2963 23.643 10.8238 24.1309C11.3512 24.6188 12.0666 24.8929 12.8125 24.8929C13.5584 24.8929 14.2738 24.6188 14.8012 24.1309C15.3287 23.643 15.625 22.9813 15.625 22.2913Z" fill="#ffa700"/>
<path d="M23.125 23.1574C23.3975 22.4012 23.9156 21.8202 24.5594 21.3883C24.4398 21.6767 24.3774 21.9825 24.375 22.2913C24.375 22.9813 24.6713 23.643 25.1988 24.1309C25.7262 24.6188 26.4416 24.8929 27.1875 24.8929C27.9334 24.8929 28.6488 24.6188 29.1762 24.1309C29.7037 23.643 30 22.9813 30 22.2913C29.9979 21.7136 29.786 21.1532 29.3981 20.7003C30.5237 21.0079 31.4675 21.6369 31.875 22.5804C31.875 18.5335 23.125 18.5335 23.125 23.1574Z" fill="#ffa700"/>
<path d="M25.0625 28.7373H14.9381C14.3756 28.7373 14.3756 29.2328 14.3756 29.2328C14.3756 31.2157 17.1881 32.2061 20.0006 32.2061C22.8131 32.2061 25.6256 31.2157 25.6256 29.2328C25.625 29.2328 25.625 28.7373 25.0625 28.7373Z" fill="#ffa700"/>
</svg>
