<svg width="221" height="37" viewBox="0 0 221 37" fill="none" xmlns="http://www.w3.org/2000/svg">
<path d="M25.2012 2.37147C24.1269 1.56209 22.065 1.15625 20 1.15625C17.9362 1.15625 15.8744 1.56152 14.8 2.37089V14.7485H25.2019V2.37147H25.2012Z" fill="white"/>
<path d="M36.49 15.941L36.8225 16.1052C36.4938 10.162 33.5769 5.38963 26.2106 3.74023L26.2113 13.7551C30.4881 14.1459 34.1106 14.9241 36.49 15.941Z" fill="white"/>
<path d="M13.7894 13.7551L13.7906 3.74023C6.42312 5.38962 3.50624 10.162 3.17749 16.1057L3.50999 15.9416C5.88999 14.9241 9.51249 14.1459 13.7894 13.7551Z" fill="white"/>
<path d="M15.625 22.2913C15.625 21.9722 15.5544 21.671 15.4406 21.3883C16.0844 21.8202 16.6025 22.4012 16.875 23.1574C16.875 18.5335 8.125 18.5335 8.125 22.5804C8.5325 21.6369 9.47625 21.0079 10.6019 20.7003C10.214 21.1532 10.002 21.7136 10 22.2913C10 22.9813 10.2963 23.643 10.8238 24.1309C11.3512 24.6188 12.0666 24.8929 12.8125 24.8929C13.5584 24.8929 14.2738 24.6188 14.8012 24.1309C15.3287 23.643 15.625 22.9813 15.625 22.2913Z" fill="white"/>
<path d="M23.125 23.1574C23.3975 22.4012 23.9156 21.8202 24.5594 21.3883C24.4398 21.6767 24.3774 21.9825 24.375 22.2913C24.375 22.9813 24.6713 23.643 25.1988 24.1309C25.7262 24.6188 26.4416 24.8929 27.1875 24.8929C27.9334 24.8929 28.6488 24.6188 29.1762 24.1309C29.7037 23.643 30 22.9813 30 22.2913C29.9979 21.7136 29.786 21.1532 29.3981 20.7003C30.5237 21.0079 31.4675 21.6369 31.875 22.5804C31.875 18.5335 23.125 18.5335 23.125 23.1574Z" fill="white"/>
<path d="M25.0625 28.7373H14.9381C14.3756 28.7373 14.3756 29.2328 14.3756 29.2328C14.3756 31.2157 17.1881 32.2061 20.0006 32.2061C22.8131 32.2061 25.6256 31.2157 25.6256 29.2328C25.625 29.2328 25.625 28.7373 25.0625 28.7373Z" fill="white"/>
<path d="M57.848 11.537H60.944V26.081H68.936V28.625H57.848V11.537ZM87.9337 11.537V28.625H85.1977V18.017L80.6617 28.625H78.6217L74.0617 18.137V28.625H71.3257V11.537H73.7737L79.6537 24.905L85.4857 11.537H87.9337ZM99.4203 28.841C97.7403 28.841 96.2683 28.481 95.0043 27.761C93.7563 27.041 92.7963 26.025 92.1243 24.713C91.4523 23.385 91.1163 21.833 91.1163 20.057C91.1163 18.297 91.4523 16.761 92.1243 15.449C92.7963 14.121 93.7563 13.105 95.0043 12.401C96.2683 11.681 97.7403 11.321 99.4203 11.321C100.572 11.321 101.652 11.505 102.66 11.873C103.684 12.225 104.532 12.721 105.204 13.361L104.196 15.617C103.428 14.993 102.66 14.545 101.892 14.273C101.14 13.985 100.332 13.841 99.4683 13.841C97.8203 13.841 96.5403 14.377 95.6283 15.449C94.7323 16.521 94.2843 18.057 94.2843 20.057C94.2843 22.073 94.7323 23.625 95.6283 24.713C96.5243 25.785 97.8043 26.321 99.4683 26.321C100.332 26.321 101.14 26.185 101.892 25.913C102.66 25.625 103.428 25.169 104.196 24.545L105.204 26.801C104.532 27.441 103.684 27.945 102.66 28.313C101.652 28.665 100.572 28.841 99.4203 28.841ZM115.354 28.841C113.706 28.841 112.266 28.489 111.034 27.785C109.818 27.065 108.874 26.049 108.202 24.737C107.546 23.409 107.218 21.849 107.218 20.057C107.218 18.281 107.546 16.737 108.202 15.425C108.858 14.097 109.794 13.081 111.01 12.377C112.242 11.673 113.69 11.321 115.354 11.321C117.018 11.321 118.458 11.673 119.674 12.377C120.906 13.081 121.842 14.097 122.482 15.425C123.138 16.737 123.466 18.281 123.466 20.057C123.466 21.849 123.138 23.409 122.482 24.737C121.826 26.049 120.89 27.065 119.674 27.785C118.458 28.489 117.018 28.841 115.354 28.841ZM115.354 26.369C116.938 26.369 118.17 25.825 119.05 24.737C119.93 23.649 120.37 22.089 120.37 20.057C120.37 18.041 119.93 16.497 119.05 15.425C118.17 14.337 116.938 13.793 115.354 13.793C113.77 13.793 112.538 14.329 111.658 15.401C110.778 16.473 110.338 18.025 110.338 20.057C110.338 22.089 110.778 23.649 111.658 24.737C112.538 25.825 113.77 26.369 115.354 26.369ZM141.037 11.537V28.625H138.733L129.517 16.649V28.625H126.637V11.537H128.941L138.133 23.489V11.537H141.037ZM150.538 28.841C149.226 28.841 147.994 28.665 146.842 28.313C145.706 27.961 144.738 27.457 143.938 26.801L144.994 24.545C145.826 25.169 146.69 25.633 147.586 25.937C148.498 26.225 149.49 26.369 150.562 26.369C151.746 26.369 152.658 26.161 153.298 25.745C153.954 25.329 154.282 24.745 154.282 23.993C154.282 23.353 153.978 22.865 153.37 22.529C152.778 22.177 151.794 21.849 150.418 21.545C148.274 21.081 146.714 20.481 145.738 19.745C144.762 19.009 144.274 17.937 144.274 16.529C144.274 15.521 144.546 14.625 145.09 13.841C145.634 13.057 146.402 12.441 147.394 11.993C148.402 11.545 149.562 11.321 150.874 11.321C152.074 11.321 153.21 11.505 154.282 11.873C155.37 12.225 156.258 12.721 156.946 13.361L155.914 15.617C154.394 14.401 152.714 13.793 150.874 13.793C149.77 13.793 148.898 14.025 148.258 14.489C147.618 14.937 147.298 15.553 147.298 16.337C147.298 17.009 147.578 17.521 148.138 17.873C148.714 18.225 149.69 18.553 151.066 18.857C152.49 19.193 153.65 19.561 154.546 19.961C155.442 20.345 156.13 20.849 156.61 21.473C157.09 22.081 157.33 22.849 157.33 23.777C157.33 24.801 157.058 25.697 156.514 26.465C155.97 27.217 155.186 27.801 154.162 28.217C153.138 28.633 151.93 28.841 150.538 28.841ZM163.856 14.081H158.288V11.537H172.568V14.081H166.976V28.625H163.856V14.081ZM188.771 28.625H185.507L183.323 22.937C183.131 22.409 182.835 22.041 182.435 21.833C182.035 21.625 181.515 21.521 180.875 21.521H177.779V28.625H174.707V11.537H182.027C183.963 11.537 185.435 11.961 186.443 12.809C187.451 13.657 187.955 14.873 187.955 16.457C187.955 17.593 187.651 18.561 187.043 19.361C186.451 20.145 185.603 20.705 184.499 21.041C185.507 21.249 186.235 21.953 186.683 23.153L188.771 28.625ZM181.595 19.121C182.763 19.121 183.627 18.905 184.187 18.473C184.747 18.041 185.027 17.385 185.027 16.505C185.027 15.641 184.747 15.001 184.187 14.585C183.643 14.153 182.779 13.937 181.595 13.937H177.731V19.121H181.595ZM199.194 28.841C197.514 28.841 196.042 28.481 194.778 27.761C193.53 27.041 192.57 26.025 191.898 24.713C191.226 23.385 190.89 21.833 190.89 20.057C190.89 18.297 191.226 16.761 191.898 15.449C192.57 14.121 193.53 13.105 194.778 12.401C196.042 11.681 197.514 11.321 199.194 11.321C200.346 11.321 201.426 11.505 202.434 11.873C203.458 12.225 204.306 12.721 204.978 13.361L203.97 15.617C203.202 14.993 202.434 14.545 201.666 14.273C200.914 13.985 200.106 13.841 199.242 13.841C197.594 13.841 196.314 14.377 195.402 15.449C194.506 16.521 194.058 18.057 194.058 20.057C194.058 22.073 194.506 23.625 195.402 24.713C196.298 25.785 197.578 26.321 199.242 26.321C200.106 26.321 200.914 26.185 201.666 25.913C202.434 25.625 203.202 25.169 203.97 24.545L204.978 26.801C204.306 27.441 203.458 27.945 202.434 28.313C201.426 28.665 200.346 28.841 199.194 28.841ZM211.645 14.081H206.077V11.537H220.357V14.081H214.765V28.625H211.645V14.081Z" fill="#FFA700"/>
<mask id="mask0" mask-type="alpha" maskUnits="userSpaceOnUse" x="57" y="11" width="164" height="18">
<path d="M57.848 11.537H60.944V26.081H68.936V28.625H57.848V11.537ZM87.9337 11.537V28.625H85.1977V18.017L80.6617 28.625H78.6217L74.0617 18.137V28.625H71.3257V11.537H73.7737L79.6537 24.905L85.4857 11.537H87.9337ZM99.4203 28.841C97.7403 28.841 96.2683 28.481 95.0043 27.761C93.7563 27.041 92.7963 26.025 92.1243 24.713C91.4523 23.385 91.1163 21.833 91.1163 20.057C91.1163 18.297 91.4523 16.761 92.1243 15.449C92.7963 14.121 93.7563 13.105 95.0043 12.401C96.2683 11.681 97.7403 11.321 99.4203 11.321C100.572 11.321 101.652 11.505 102.66 11.873C103.684 12.225 104.532 12.721 105.204 13.361L104.196 15.617C103.428 14.993 102.66 14.545 101.892 14.273C101.14 13.985 100.332 13.841 99.4683 13.841C97.8203 13.841 96.5403 14.377 95.6283 15.449C94.7323 16.521 94.2843 18.057 94.2843 20.057C94.2843 22.073 94.7323 23.625 95.6283 24.713C96.5243 25.785 97.8043 26.321 99.4683 26.321C100.332 26.321 101.14 26.185 101.892 25.913C102.66 25.625 103.428 25.169 104.196 24.545L105.204 26.801C104.532 27.441 103.684 27.945 102.66 28.313C101.652 28.665 100.572 28.841 99.4203 28.841ZM115.354 28.841C113.706 28.841 112.266 28.489 111.034 27.785C109.818 27.065 108.874 26.049 108.202 24.737C107.546 23.409 107.218 21.849 107.218 20.057C107.218 18.281 107.546 16.737 108.202 15.425C108.858 14.097 109.794 13.081 111.01 12.377C112.242 11.673 113.69 11.321 115.354 11.321C117.018 11.321 118.458 11.673 119.674 12.377C120.906 13.081 121.842 14.097 122.482 15.425C123.138 16.737 123.466 18.281 123.466 20.057C123.466 21.849 123.138 23.409 122.482 24.737C121.826 26.049 120.89 27.065 119.674 27.785C118.458 28.489 117.018 28.841 115.354 28.841ZM115.354 26.369C116.938 26.369 118.17 25.825 119.05 24.737C119.93 23.649 120.37 22.089 120.37 20.057C120.37 18.041 119.93 16.497 119.05 15.425C118.17 14.337 116.938 13.793 115.354 13.793C113.77 13.793 112.538 14.329 111.658 15.401C110.778 16.473 110.338 18.025 110.338 20.057C110.338 22.089 110.778 23.649 111.658 24.737C112.538 25.825 113.77 26.369 115.354 26.369ZM141.037 11.537V28.625H138.733L129.517 16.649V28.625H126.637V11.537H128.941L138.133 23.489V11.537H141.037ZM150.538 28.841C149.226 28.841 147.994 28.665 146.842 28.313C145.706 27.961 144.738 27.457 143.938 26.801L144.994 24.545C145.826 25.169 146.69 25.633 147.586 25.937C148.498 26.225 149.49 26.369 150.562 26.369C151.746 26.369 152.658 26.161 153.298 25.745C153.954 25.329 154.282 24.745 154.282 23.993C154.282 23.353 153.978 22.865 153.37 22.529C152.778 22.177 151.794 21.849 150.418 21.545C148.274 21.081 146.714 20.481 145.738 19.745C144.762 19.009 144.274 17.937 144.274 16.529C144.274 15.521 144.546 14.625 145.09 13.841C145.634 13.057 146.402 12.441 147.394 11.993C148.402 11.545 149.562 11.321 150.874 11.321C152.074 11.321 153.21 11.505 154.282 11.873C155.37 12.225 156.258 12.721 156.946 13.361L155.914 15.617C154.394 14.401 152.714 13.793 150.874 13.793C149.77 13.793 148.898 14.025 148.258 14.489C147.618 14.937 147.298 15.553 147.298 16.337C147.298 17.009 147.578 17.521 148.138 17.873C148.714 18.225 149.69 18.553 151.066 18.857C152.49 19.193 153.65 19.561 154.546 19.961C155.442 20.345 156.13 20.849 156.61 21.473C157.09 22.081 157.33 22.849 157.33 23.777C157.33 24.801 157.058 25.697 156.514 26.465C155.97 27.217 155.186 27.801 154.162 28.217C153.138 28.633 151.93 28.841 150.538 28.841ZM163.856 14.081H158.288V11.537H172.568V14.081H166.976V28.625H163.856V14.081ZM188.771 28.625H185.507L183.323 22.937C183.131 22.409 182.835 22.041 182.435 21.833C182.035 21.625 181.515 21.521 180.875 21.521H177.779V28.625H174.707V11.537H182.027C183.963 11.537 185.435 11.961 186.443 12.809C187.451 13.657 187.955 14.873 187.955 16.457C187.955 17.593 187.651 18.561 187.043 19.361C186.451 20.145 185.603 20.705 184.499 21.041C185.507 21.249 186.235 21.953 186.683 23.153L188.771 28.625ZM181.595 19.121C182.763 19.121 183.627 18.905 184.187 18.473C184.747 18.041 185.027 17.385 185.027 16.505C185.027 15.641 184.747 15.001 184.187 14.585C183.643 14.153 182.779 13.937 181.595 13.937H177.731V19.121H181.595ZM199.194 28.841C197.514 28.841 196.042 28.481 194.778 27.761C193.53 27.041 192.57 26.025 191.898 24.713C191.226 23.385 190.89 21.833 190.89 20.057C190.89 18.297 191.226 16.761 191.898 15.449C192.57 14.121 193.53 13.105 194.778 12.401C196.042 11.681 197.514 11.321 199.194 11.321C200.346 11.321 201.426 11.505 202.434 11.873C203.458 12.225 204.306 12.721 204.978 13.361L203.97 15.617C203.202 14.993 202.434 14.545 201.666 14.273C200.914 13.985 200.106 13.841 199.242 13.841C197.594 13.841 196.314 14.377 195.402 15.449C194.506 16.521 194.058 18.057 194.058 20.057C194.058 22.073 194.506 23.625 195.402 24.713C196.298 25.785 197.578 26.321 199.242 26.321C200.106 26.321 200.914 26.185 201.666 25.913C202.434 25.625 203.202 25.169 203.97 24.545L204.978 26.801C204.306 27.441 203.458 27.945 202.434 28.313C201.426 28.665 200.346 28.841 199.194 28.841ZM211.645 14.081H206.077V11.537H220.357V14.081H214.765V28.625H211.645V14.081Z" fill="#0052FF"/>
</mask>
<g mask="url(#mask0)">
<path d="M221 11.1001L58 27.7501H221V11.1001Z" fill="white"/>
</g>
</svg>
